<svg width="36" height="36" viewBox="0 0 36 36" fill="none" xmlns="http://www.w3.org/2000/svg">
<rect x="0.5" y="0.5" width="35" height="35" rx="5.5" fill="#242320" stroke="#A35709"/>
<path d="M22.5556 20.9511C21.9645 20.9511 21.4356 21.1844 21.0311 21.55L15.4856 18.3222C15.5245 18.1433 15.5556 17.9644 15.5556 17.7778C15.5556 17.5911 15.5245 17.4122 15.4856 17.2333L20.9689 14.0367C21.3889 14.4256 21.9411 14.6667 22.5556 14.6667C23.8467 14.6667 24.8889 13.6244 24.8889 12.3333C24.8889 11.0422 23.8467 10 22.5556 10C21.2645 10 20.2222 11.0422 20.2222 12.3333C20.2222 12.52 20.2534 12.6989 20.2922 12.8778L14.8089 16.0744C14.3889 15.6856 13.8367 15.4444 13.2222 15.4444C11.9311 15.4444 10.8889 16.4867 10.8889 17.7778C10.8889 19.0689 11.9311 20.1111 13.2222 20.1111C13.8367 20.1111 14.3889 19.87 14.8089 19.4811L20.3467 22.7167C20.3078 22.88 20.2845 23.0511 20.2845 23.2222C20.2845 24.4744 21.3034 25.4933 22.5556 25.4933C23.8078 25.4933 24.8267 24.4744 24.8267 23.2222C24.8267 21.97 23.8078 20.9511 22.5556 20.9511Z" fill="#D9D9D9"/>
</svg>
